<svg
  class="top-grill"
  width="80mm"
  height="50mm"
  viewBox="37.5 100 120 70"
  version="1.1"
  id="svg5"
  inkscape:version="1.2.1 (9c6d41e, 2022-07-14)"
  sodipodi:docname="drawing.svg"
  xmlns:inkscape="http://www.inkscape.org/namespaces/inkscape"
  xmlns:sodipodi="http://sodipodi.sourceforge.net/DTD/sodipodi-0.dtd"
  xmlns="http://www.w3.org/2000/svg"
  xmlns:svg="http://www.w3.org/2000/svg">>
    <path
      style="fill:#003B1B;stroke-width:0.938777;stroke:black;stroke-linecap:square"
      id="top"
      class="move-top"
      sodipodi:type="arc"
      sodipodi:cx="-99.041115"
      sodipodi:cy="-172.47568"
      sodipodi:rx="53.76112"
      sodipodi:ry="57.083675"
      sodipodi:start="6.2739704"
      sodipodi:end="3.1415927"
      sodipodi:arc-type="slice"
      d="m -45.282277,-173.00169 a 53.76112,57.083675 0 0 1 -26.592766,49.78565 53.76112,57.083675 0 0 1 -53.903497,0.26371 53.76112,57.083675 0 0 1 -27.02369,-49.52335 h 53.761115 z"
      transform="matrix(-0.99995684,-0.0092908,0.01133687,-0.99993574,0,0)" />
    <path
      id="path976-6-9"
      style="fill:#014421;stroke-width:0.938777;stroke:black"
      d="m 97.080449,108.02118 a 13.046818,10.015198 5.5031733 0 0 -6.419505,1.3791 13.046818,10.015198 5.5031733 0 0 -5.849254,8.7646 l 12.998426,-0.0965 13.004744,-0.005 a 13.046818,10.015198 5.5031733 0 0 -7.11789,-8.71433 13.046818,10.015198 5.5031733 0 0 -6.616521,-1.32844 z m -0.370524,2.45457 a 8.6387101,6.4333184 11.142391 0 1 4.730135,0.93123 8.6387101,6.4333184 11.142391 0 1 4.97234,5.73093 l -8.530485,-0.13507 -8.522652,-0.0751 a 8.6387101,6.4333184 11.142391 0 1 3.531778,-5.6263 8.6387101,6.4333184 11.142391 0 1 3.818884,-0.82569 z"
      inkscape:transform-center-x="0.87141286"
      inkscape:transform-center-y="-1.9233676" />
    
    
    <path
      id="path976-6-8"
      style="fill:#014421;stroke-width:0.283494;stroke:black"
      d="m 97.605246,114.57017 a 54.018724,59.128255 1.0407485 0 0 -27.135598,7.84442 54.018724,59.128255 1.0407485 0 0 -27.28618,51.30909 l 54.020403,-0.0272 54.016769,0.51761 a 54.018724,59.128255 1.0407485 0 0 -26.58832,-51.55431 54.018724,59.128255 1.0407485 0 0 -27.027074,-8.08957 z m 0.635033,4.59799 a 2.0722407,2.2594611 4.4549342e-7 0 1 2.071781,2.25939 2.0722407,2.2594611 4.4549342e-7 0 1 -2.071781,2.25938 2.0722407,2.2594611 4.4549342e-7 0 1 -2.072296,-2.25938 2.0722407,2.2594611 4.4549342e-7 0 1 2.072296,-2.25939 z m -12.433775,1.60207 a 2.0722407,2.2594611 4.4549342e-7 0 1 2.072297,2.25938 2.0722407,2.2594611 4.4549342e-7 0 1 -2.072296,2.2594 2.0722407,2.2594611 4.4549342e-7 0 1 -2.072296,-2.2594 2.0722407,2.2594611 4.4549342e-7 0 1 2.072295,-2.25938 z m 23.830626,0 a 2.0722407,2.2594611 4.4549342e-7 0 1 2.0723,2.25938 2.0722407,2.2594611 4.4549342e-7 0 1 -2.0723,2.2594 2.0722407,2.2594611 4.4549342e-7 0 1 -2.07178,-2.2594 2.0722407,2.2594611 4.4549342e-7 0 1 2.07178,-2.25938 z m -33.155697,3.73834 a 2.0722407,2.2594611 4.4549342e-7 0 1 2.072296,2.25939 2.0722407,2.2594611 4.4549342e-7 0 1 -2.072295,2.25939 2.0722407,2.2594611 4.4549342e-7 0 1 -2.072296,-2.25939 2.0722407,2.2594611 4.4549342e-7 0 1 2.072295,-2.25939 z m 42.480767,1.06787 a 2.0722407,2.2594611 4.4549342e-7 0 1 2.0723,2.25993 2.0722407,2.2594611 4.4549342e-7 0 1 -2.0723,2.25938 2.0722407,2.2594611 4.4549342e-7 0 1 -2.07178,-2.25938 2.0722407,2.2594611 4.4549342e-7 0 1 2.07178,-2.25993 z m -50.76943,5.87462 a 2.0722407,2.2594611 4.4549342e-7 0 1 2.071776,2.25939 2.0722407,2.2594611 4.4549342e-7 0 1 -2.071775,2.25992 2.0722407,2.2594611 4.4549342e-7 0 1 -2.072296,-2.25992 2.0722407,2.2594611 4.4549342e-7 0 1 2.072295,-2.25939 z m 30.047509,0.53421 a 2.0722407,2.2594611 4.4549342e-7 0 1 2.071781,2.25938 2.0722407,2.2594611 4.4549342e-7 0 1 -2.071781,2.25938 2.0722407,2.2594611 4.4549342e-7 0 1 -2.072296,-2.25938 2.0722407,2.2594611 4.4549342e-7 0 1 2.072296,-2.25938 z m 27.975211,0 a 2.0722407,2.2594611 4.4549342e-7 0 1 2.0723,2.25938 2.0722407,2.2594611 4.4549342e-7 0 1 -2.0723,2.25938 2.0722407,2.2594611 4.4549342e-7 0 1 -2.07229,-2.25938 2.0722407,2.2594611 4.4549342e-7 0 1 2.07229,-2.25938 z m -15.54196,1.0684 a 2.0722407,2.2594611 4.4549342e-7 0 1 2.0723,2.25938 2.0722407,2.2594611 4.4549342e-7 0 1 -2.0723,2.25939 2.0722407,2.2594611 4.4549342e-7 0 1 -2.0723,-2.25939 2.0722407,2.2594611 4.4549342e-7 0 1 2.0723,-2.25938 z m -24.348822,0.53366 a 2.0722407,2.2594611 4.4549342e-7 0 1 2.072297,2.2594 2.0722407,2.2594611 4.4549342e-7 0 1 -2.072297,2.25991 2.0722407,2.2594611 4.4549342e-7 0 1 -2.072295,-2.25991 2.0722407,2.2594611 4.4549342e-7 0 1 2.072295,-2.2594 z m 35.227982,5.87462 a 2.0722407,2.2594611 4.4549342e-7 0 1 2.0723,2.25938 2.0722407,2.2594611 4.4549342e-7 0 1 -2.07229,2.2594 2.0722407,2.2594611 4.4549342e-7 0 1 -2.0723,-2.2594 2.0722407,2.2594611 4.4549342e-7 0 1 2.07229,-2.25938 z m -60.613215,1.0684 a 2.0722407,2.2594611 4.4549342e-7 0 1 2.072297,2.2594 2.0722407,2.2594611 4.4549342e-7 0 1 -2.072296,2.25938 2.0722407,2.2594611 4.4549342e-7 0 1 -2.071778,-2.25938 2.0722407,2.2594611 4.4549342e-7 0 1 2.071777,-2.2594 z m 15.023755,0 a 2.0722407,2.2594611 4.4549342e-7 0 1 2.072295,2.2594 2.0722407,2.2594611 4.4549342e-7 0 1 -2.072295,2.25938 2.0722407,2.2594611 4.4549342e-7 0 1 -2.071776,-2.25938 2.0722407,2.2594611 4.4549342e-7 0 1 2.071776,-2.2594 z m 58.02272,0 a 2.0722407,2.2594611 4.4549342e-7 0 1 2.0723,2.2594 2.0722407,2.2594611 4.4549342e-7 0 1 -2.0723,2.25938 2.0722407,2.2594611 4.4549342e-7 0 1 -2.07177,-2.25938 2.0722407,2.2594611 4.4549342e-7 0 1 2.07177,-2.2594 z m -35.227986,0.53368 a 2.0722407,2.2594611 4.4549342e-7 0 1 2.072296,2.25992 2.0722407,2.2594611 4.4549342e-7 0 1 -2.072296,2.25938 2.0722407,2.2594611 4.4549342e-7 0 1 -2.072297,-2.25938 2.0722407,2.2594611 4.4549342e-7 0 1 2.072297,-2.25992 z m -10.879163,1.6026 a 2.0722407,2.2594611 4.4549342e-7 0 1 2.072295,2.25938 2.0722407,2.2594611 4.4549342e-7 0 1 -2.072295,2.25939 2.0722407,2.2594611 4.4549342e-7 0 1 -2.072296,-2.25939 2.0722407,2.2594611 4.4549342e-7 0 1 2.072296,-2.25938 z m 21.758329,0.53366 a 2.0722407,2.2594611 4.4549342e-7 0 1 2.0723,2.2594 2.0722407,2.2594611 4.4549342e-7 0 1 -2.0723,2.25991 2.0722407,2.2594611 4.4549342e-7 0 1 -2.07178,-2.25991 2.0722407,2.2594611 4.4549342e-7 0 1 2.07178,-2.2594 z m 30.5657,5.87462 a 2.0722407,2.2594611 4.4549342e-7 0 1 2.0723,2.25939 2.0722407,2.2594611 4.4549342e-7 0 1 -2.07229,2.25992 2.0722407,2.2594611 4.4549342e-7 0 1 -2.0723,-2.25992 2.0722407,2.2594611 4.4549342e-7 0 1 2.07229,-2.25939 z m -83.407427,1.60208 a 2.0722407,2.2594611 4.4549342e-7 0 1 2.072296,2.25992 2.0722407,2.2594611 4.4549342e-7 0 1 -2.072295,2.25938 2.0722407,2.2594611 4.4549342e-7 0 1 -2.072296,-2.25938 2.0722407,2.2594611 4.4549342e-7 0 1 2.072295,-2.25992 z m 12.433255,0 a 2.0722407,2.2594611 4.4549342e-7 0 1 2.072296,2.25992 2.0722407,2.2594611 4.4549342e-7 0 1 -2.072296,2.25938 2.0722407,2.2594611 4.4549342e-7 0 1 -2.072296,-2.25938 2.0722407,2.2594611 4.4549342e-7 0 1 2.072296,-2.25992 z m 11.915571,0 a 2.0722407,2.2594611 4.4549342e-7 0 1 2.072296,2.25992 2.0722407,2.2594611 4.4549342e-7 0 1 -2.072297,2.25938 2.0722407,2.2594611 4.4549342e-7 0 1 -2.072295,-2.25938 2.0722407,2.2594611 4.4549342e-7 0 1 2.072296,-2.25992 z m 35.227991,0 a 2.0722407,2.2594611 4.4549342e-7 0 1 2.0723,2.25992 2.0722407,2.2594611 4.4549342e-7 0 1 -2.0723,2.25938 2.0722407,2.2594611 4.4549342e-7 0 1 -2.0723,-2.25938 2.0722407,2.2594611 4.4549342e-7 0 1 2.0723,-2.25992 z m 12.43325,0 a 2.0722407,2.2594611 4.4549342e-7 0 1 2.0723,2.25992 2.0722407,2.2594611 4.4549342e-7 0 1 -2.0723,2.25938 2.0722407,2.2594611 4.4549342e-7 0 1 -2.0723,-2.25938 2.0722407,2.2594611 4.4549342e-7 0 1 2.0723,-2.25992 z m -36.263875,2.13626 a 2.0722407,2.2594611 4.4549342e-7 0 1 2.071777,2.2594 2.0722407,2.2594611 4.4549342e-7 0 1 -2.071777,2.25991 2.0722407,2.2594611 4.4549342e-7 0 1 -2.072294,-2.25991 2.0722407,2.2594611 4.4549342e-7 0 1 2.072294,-2.2594 z m 11.915045,0.53421 a 2.0722407,2.2594611 4.4549342e-7 0 1 2.0723,2.25939 2.0722407,2.2594611 4.4549342e-7 0 1 -2.0723,2.25938 2.0722407,2.2594611 4.4549342e-7 0 1 -2.07228,-2.25938 2.0722407,2.2594611 4.4549342e-7 0 1 2.07228,-2.25939 z m -50.76994,8.01089 a 2.0722407,2.2594611 4.4549342e-7 0 1 2.072296,2.25939 2.0722407,2.2594611 4.4549342e-7 0 1 -2.072296,2.25938 2.0722407,2.2594611 4.4549342e-7 0 1 -2.072295,-2.25938 2.0722407,2.2594611 4.4549342e-7 0 1 2.072295,-2.25939 z m 12.951459,0 a 2.0722407,2.2594611 4.4549342e-7 0 1 2.072296,2.25939 2.0722407,2.2594611 4.4549342e-7 0 1 -2.072296,2.25938 2.0722407,2.2594611 4.4549342e-7 0 1 -2.071777,-2.25938 2.0722407,2.2594611 4.4549342e-7 0 1 2.071777,-2.25939 z m 77.709271,0 a 2.0722407,2.2594611 4.4549342e-7 0 1 2.0723,2.25939 2.0722407,2.2594611 4.4549342e-7 0 1 -2.0723,2.25938 2.0722407,2.2594611 4.4549342e-7 0 1 -2.0723,-2.25938 2.0722407,2.2594611 4.4549342e-7 0 1 2.0723,-2.25939 z m -65.275497,0.5342 a 2.0722407,2.2594611 4.4549342e-7 0 1 2.072296,2.25939 2.0722407,2.2594611 4.4549342e-7 0 1 -2.072295,2.25938 2.0722407,2.2594611 4.4549342e-7 0 1 -2.072296,-2.25938 2.0722407,2.2594611 4.4549342e-7 0 1 2.072295,-2.25939 z m 39.890787,0 a 2.0722407,2.2594611 4.4549342e-7 0 1 2.07178,2.25939 2.0722407,2.2594611 4.4549342e-7 0 1 -2.07178,2.25938 2.0722407,2.2594611 4.4549342e-7 0 1 -2.0723,-2.25938 2.0722407,2.2594611 4.4549342e-7 0 1 2.0723,-2.25939 z m 12.95146,0 a 2.0722407,2.2594611 4.4549342e-7 0 1 2.07177,2.25939 2.0722407,2.2594611 4.4549342e-7 0 1 -2.07178,2.25938 2.0722407,2.2594611 4.4549342e-7 0 1 -2.07229,-2.25938 2.0722407,2.2594611 4.4549342e-7 0 1 2.0723,-2.25939 z m -41.963084,0.53367 a 2.0722407,2.2594611 4.4549342e-7 0 1 2.072296,2.25939 2.0722407,2.2594611 4.4549342e-7 0 1 -2.072296,2.25992 2.0722407,2.2594611 4.4549342e-7 0 1 -2.072296,-2.25992 2.0722407,2.2594611 4.4549342e-7 0 1 2.072296,-2.25939 z m 14.505544,0 a 2.0722407,2.2594611 4.4549342e-7 0 1 2.0723,2.25939 2.0722407,2.2594611 4.4549342e-7 0 1 -2.0723,2.25992 2.0722407,2.2594611 4.4549342e-7 0 1 -2.07228,-2.25992 2.0722407,2.2594611 4.4549342e-7 0 1 2.07228,-2.25939 z" />
    <path
      style="fill:#ff6600;stroke:black;stroke-width:0.629999"
      d="M 44.340565,172.1176 H 150.55169"
      id="path327" />
    
    <ellipse
      style="fill:#666666;stroke-width:0.752507;stroke:black"
      id="path9654"
      class="move-top"
      cx="65.346581"
      cy="153.64522"
      rx="10.053966"
      ry="10.827348" />
    <ellipse
      style="stroke-width:0.645124;stroke:black"
      class="vents move-top"
      id="path9708-5-5"
      cx="69.213493"
      cy="158.28551"
      rx="2.0623517"
      ry="2.1813347" />
    <ellipse
      style="stroke-width:0.645124;stroke:black"
      class="vents move-top"
      id="path9708-5-6"
      cx="60.964096"
      cy="158.28552"
      rx="2.0623517"
      ry="2.1813347" />
    <ellipse
      style="stroke-width:0.645124;stroke:black"
      class="vents move-top"
      id="svgInternalID"
      cx="61.221886"
      cy="150.17493"
      rx="2.0623517"
      ry="2.1813347" />
    <rect
      style="fill:#014421;stroke-width:0.36183;stroke:black"
      id="rect11323"
      class="move-top"
      width="4.5110507"
      height="3.0863779"
      x="154.221886"
      y="50.17493" 
      transform="rotate(47)" />
</svg>