<svg
              class="bottom-grill"
              width="85mm"
              height="125mm"
              viewBox="37 155 130 80"
              version="1.1"
              id="svg5"
              inkscape:version="1.2.1 (9c6d41e, 2022-07-14)"
              sodipodi:docname="drawing.svg"
              xmlns:inkscape="http://www.inkscape.org/namespaces/inkscape"
              xmlns:sodipodi="http://sodipodi.sourceforge.net/DTD/sodipodi-0.dtd"
              xmlns="http://www.w3.org/2000/svg"
              xmlns:svg="http://www.w3.org/2000/svg">
            <g
              inkscape:label="Layer 1"
              inkscape:groupmode="layer"
              id="layer1">
              <path
                style="display:inline;fill:#c0c0c070;stroke-width:0.264583;stroke:black"
                id="rect1246-0-8"
                width="5.1565948"
                height="74.244667"
                x="37.003876"
                y="232.99815"
                sodipodi:type="rect"
                inkscape:path-effect="#path-effect1250-9-3"
                d="m 39.120542,232.99815 h 0.923262 a 2.1166667,2.1166667 45 0 1 2.116666,2.11667 v 70.01133 a 2.1166667,2.1166667 135 0 1 -2.116666,2.11667 h -0.923262 a 2.1166667,2.1166667 45 0 1 -2.116666,-2.11667 v -70.01133 a 2.1166667,2.1166667 135 0 1 2.116666,-2.11667 z"
                transform="rotate(-18.373705)" />
              <path
                style="display:inline;fill:#c0c0c070;stroke-width:0.264583;stroke:black"
                id="rect1246-0-4"
                width="5.1565948"
                height="74.244667"
                x="151.44363"
                y="163.58716"
                sodipodi:type="rect"
                inkscape:path-effect="#path-effect1250-9-0"
                d="m 153.5603,163.58716 h 0.92326 a 2.1166667,2.1166667 45 0 1 2.11667,2.11666 v 70.01134 a 2.1166667,2.1166667 135 0 1 -2.11667,2.11667 h -0.92326 a 2.1166667,2.1166667 45 0 1 -2.11667,-2.11667 v -70.01134 a 2.1166667,2.1166667 135 0 1 2.11667,-2.11666 z"
                transform="rotate(20.802937)" />
              <rect
                style="fill:#00000085;stroke-width:0.192512"
                id="rect1065-9"
                width="4.6402907"
                height="32.48204"
                x="92.548042"
                y="140.49774" />
              <rect
                style="fill:#00000085;stroke-width:0.195544"
                id="rect1065-1"
                class="grill-bars"
                width="4.6402907"
                height="33.513218"
                x="126.06126"
                y="144.62244" />
              <rect
                style="fill:#00000085;stroke-width:0.20437"
                id="rect1065-55"
                class="grill-bars"
                width="4.6402907"
                height="36.606747"
                x="109.56245"
                y="142.04449" />
              <rect
                style="fill:#00000085;stroke-width:0.160885"
                id="rect1065-8"
                class="grill-bars"
                width="4.6402907"
                height="22.685871"
                x="62.128353"
                y="146.1692" />
              <rect
                style="fill:#00000085;stroke-width:0.189432"
                id="rect1065-9-0"
                class="grill-bars"
                width="4.6402907"
                height="31.450865"
                x="76.564827"
                y="142.56009" />
              <rect
                style="fill:#c0c0c070;stroke-width:0.208521;stroke:black"
                id="handle-left"
                width="4.6402907"
                height="10.321751"
                x="172.09789"
                y="-51.297382"
                transform="rotate(90)" />
                <rect
                style="fill:#c0c0c070;stroke-width:0.208521;stroke:black"
                id="handle-right"
                width="4.6402907"
                height="10.321751"
                x="172.09789"
                y="-154.15224"
                transform="rotate(90)" />
              <path
              id="path976"
              style="fill:#014421;stroke-width:0.938777;stroke:black"
              d="M 97.455033 140.27516 A 50.144447 17.229118 0 0 0 47.310807 157.50408 A 50.144447 17.229118 0 0 0 48.15365 160.615 A 49.312469 56.573227 0 0 0 72.764551 207.91341 A 49.312469 56.573227 0 0 0 122.07679 207.91341 A 49.312469 56.573227 0 0 0 146.68355 160.76641 A 50.144447 17.229118 0 0 0 147.59978 157.50408 A 50.144447 17.229118 0 0 0 97.455033 140.27516 z M 97.704114 143.11891 A 45.761948 14.393384 0 0 1 143.46566 157.51235 A 45.761948 14.393384 0 0 1 97.704114 171.90579 A 45.761948 14.393384 0 0 1 51.942049 157.51235 A 45.761948 14.393384 0 0 1 97.704114 143.11891 z " />
              <!-- <path
                style="fill:#014421;stroke-width:0.638777"
                id="path976"
                sodipodi:type="arc"
                sodipodi:cx="97.420547"
                sodipodi:cy="158.91933"
                sodipodi:rx="49.312469"
                sodipodi:ry="56.573227"
                sodipodi:start="0"
                sodipodi:end="3.1415927"
                sodipodi:arc-type="slice"
                d="m 146.73302,158.91933 a 49.312469,56.573227 0 0 1 -24.65624,48.99385 49.312469,56.573227 0 0 1 -49.312469,0 49.312469,56.573227 0 0 1 -24.656233,-48.99385 h 49.312469 z" />
              <ellipse
                style="fill:#014421;stroke-width:0.264583"
                id="path964"
                cx="97.455078"
                cy="157.50415"
                rx="50.144447"
                ry="17.229118" />
              <ellipse
                style="fill:#ffffff;stroke-width:0.231022"
                id="path964-7"
                cx="98.219498"
                cy="158.02776"
                rx="45.761948"
                ry="14.393384" /> -->
              
              <path
                class="fire-path"
                style="fill:#e25822;stroke-width:1.847053;transform: scale(.25) translate(18.5rem, 31rem)"
                d="M 110.62001,168.7966 C -56.314883,152.64699 18.284151,63.04276 18.284151,63.04276 c 0,0 -1.04335,31.77824 12.52011,28.13156 13.56346,-3.64668 -3.6517,-61.47268 42.77707,-75.017508 C 120.01008,2.6119824 120.53176,3.1329374 120.53176,3.1329374 c 0,0 -64.165589,33.8620726 -29.735269,31.2573026 34.430319,-2.60478 9.911759,-26.0477536 18.258499,-16.670563 8.34674,9.377185 40.16869,31.778253 18.78016,50.532633 -21.38851,18.75436 34.952,-7.81434 34.952,-7.81434 0,0 -27.64858,32.29922 -3.65171,13.54484 23.9969,-18.75438 -2.08667,-29.69444 -2.08667,-29.69444 0,0 97.55257,17.71248 21.9102,75.01751 -75.64237,57.30504 -82.424089,56.78408 -53.73216,44.80212 28.69192,-11.98196 -14.6068,4.6886 -14.6068,4.6886 z"
                id="path21307" />
              
              <path
                style="display:inline;fill:#c0c0c085;stroke-width:0.364583;stroke:black"
                id="middle-leg"
                width="5.1565948"
                height="74.244667"
                x="95.383423"
                y="211.90668"
                sodipodi:type="rect"
                inkscape:path-effect="#path-effect1250-9-3-2"
                d="m 97.50009,211.90668 h 0.923261 a 2.1166667,2.1166667 45 0 1 2.116669,2.11666 v 70.01134 a 2.1166667,2.1166667 135 0 1 -2.116669,2.11666 H 97.50009 a 2.1166667,2.1166667 45 0 1 -2.116667,-2.11666 v -70.01134 a 2.1166667,2.1166667 135 0 1 2.116667,-2.11666 z" />
              
              <path
                style="fill:black;stroke:black;stroke-width:0.555914;stroke-dasharray:none;stroke-opacity:1"
                d="m 146.85789,176.56937 c 1.60322,5.87445 3.20644,11.7489 4.80966,17.62335"
                id="string"
                inkscape:path-effect="#path-effect11791"
                inkscape:original-d="m 146.85789,176.56937 4.80966,17.62335" />
              <rect
                style="stroke:#9f0000;stroke-width:0.469099;stroke-dasharray:none;stroke-opacity:1"
                id="price-tag"
                class="price-tag"
                width="19.507335"
                height="9.9838343"
                x="241.18974"
                y="28.751135"
                transform="matrix(0.721377,0.69254258,-0.72753198,0.68607377,0,0)" />
    <text
       xml:space="preserve"
       style="font-size:5px;stroke-width:.25;font-family: Monospace; cursor: pointer"
       x="269.44809"
       y="48.590206"
       class="aboutText"
       transform="matrix(0.6804988,0.55797454,-0.72334633,0.87532412,0,0)"><tspan
         sodipodi:role="line"
         id="tspan425"
         style="stroke-width:.2"
         x="269.44809"
         y="48.590206">Contact</tspan></text>
              </g>
            </svg>