<?xml version="1.0" encoding="UTF-8" standalone="no"?>
<!-- Created with Inkscape (http://www.inkscape.org/) -->

<svg
   width="210mm"
   height="297mm"
   viewBox="0 0 210 297"
   version="1.1"
   id="svg20684"
   inkscape:version="1.2.1 (9c6d41e, 2022-07-14)"
   sodipodi:docname="fire.svg"
   xmlns:inkscape="http://www.inkscape.org/namespaces/inkscape"
   xmlns:sodipodi="http://sodipodi.sourceforge.net/DTD/sodipodi-0.dtd"
   xmlns="http://www.w3.org/2000/svg"
   xmlns:svg="http://www.w3.org/2000/svg">
  <sodipodi:namedview
     id="namedview20686"
     pagecolor="#ffffff"
     bordercolor="#000000"
     borderopacity="0.25"
     inkscape:showpageshadow="2"
     inkscape:pageopacity="0.0"
     inkscape:pagecheckerboard="0"
     inkscape:deskcolor="#d1d1d1"
     inkscape:document-units="mm"
     showgrid="false"
     inkscape:zoom="0.68239338"
     inkscape:cx="444.02541"
     inkscape:cy="441.82727"
     inkscape:window-width="1390"
     inkscape:window-height="721"
     inkscape:window-x="1578"
     inkscape:window-y="25"
     inkscape:window-maximized="0"
     inkscape:current-layer="layer1" />
  <defs
     id="defs20681">
    <inkscape:path-effect
       effect="simplify"
       id="path-effect21305"
       is_visible="true"
       lpeversion="1"
       steps="1"
       threshold="0.00172414"
       smooth_angles="360"
       helper_size="0"
       simplify_individual_paths="false"
       simplify_just_coalesce="false" />
    <inkscape:path-effect
       effect="simplify"
       id="path-effect21172"
       is_visible="true"
       lpeversion="1"
       steps="1"
       threshold="0.00172414"
       smooth_angles="360"
       helper_size="0"
       simplify_individual_paths="false"
       simplify_just_coalesce="false" />
  </defs>
  <g
     inkscape:label="Layer 1"
     inkscape:groupmode="layer"
     id="layer1">
    <path
       style="fill:#ff6600;stroke:#9f0000;stroke-width:0.847053"
       d="M 110.62001,168.7966 C -56.314883,152.64699 18.284151,63.04276 18.284151,63.04276 c 0,0 -1.04335,31.77824 12.52011,28.13156 13.56346,-3.64668 -3.6517,-61.47268 42.77707,-75.017508 C 120.01008,2.6119824 120.53176,3.1329374 120.53176,3.1329374 c 0,0 -64.165589,33.8620726 -29.735269,31.2573026 34.430319,-2.60478 9.911759,-26.0477536 18.258499,-16.670563 8.34674,9.377185 40.16869,31.778253 18.78016,50.532633 -21.38851,18.75436 34.952,-7.81434 34.952,-7.81434 0,0 -27.64858,32.29922 -3.65171,13.54484 23.9969,-18.75438 -2.08667,-29.69444 -2.08667,-29.69444 0,0 97.55257,17.71248 21.9102,75.01751 -75.64237,57.30504 -82.424089,56.78408 -53.73216,44.80212 28.69192,-11.98196 -14.6068,4.6886 -14.6068,4.6886 z"
       id="path21307" />
  </g>
</svg>
