<svg
            class="top-grill"
            width="80mm"
            height="50mm"
            viewBox="37.5 100 120 70"
            version="1.1"
            id="svg5"
            inkscape:version="1.2.1 (9c6d41e, 2022-07-14)"
            sodipodi:docname="drawing.svg"
            xmlns:inkscape="http://www.inkscape.org/namespaces/inkscape"
            xmlns:sodipodi="http://sodipodi.sourceforge.net/DTD/sodipodi-0.dtd"
            xmlns="http://www.w3.org/2000/svg"
            xmlns:svg="http://www.w3.org/2000/svg">>
              <path
                style="fill:navy;stroke-width:0.66997"
                id="top"
                class="move-top"
                sodipodi:type="arc"
                sodipodi:cx="-99.041115"
                sodipodi:cy="-172.47568"
                sodipodi:rx="53.76112"
                sodipodi:ry="57.083675"
                sodipodi:start="6.2739704"
                sodipodi:end="3.1415927"
                sodipodi:arc-type="slice"
                d="m -45.282277,-173.00169 a 53.76112,57.083675 0 0 1 -26.592766,49.78565 53.76112,57.083675 0 0 1 -53.903497,0.26371 53.76112,57.083675 0 0 1 -27.02369,-49.52335 h 53.761115 z"
                transform="matrix(-0.99995684,-0.0092908,0.01133687,-0.99993574,0,0)" />
                <path
                id="path976-6-9"
                style="fill:navy;stroke-width:0.138245"
                d="m 97.080449,108.02118 a 13.046818,10.015198 5.5031733 0 0 -6.419505,1.3791 13.046818,10.015198 5.5031733 0 0 -5.849254,8.7646 l 12.998426,-0.0965 13.004744,-0.005 a 13.046818,10.015198 5.5031733 0 0 -7.11789,-8.71433 13.046818,10.015198 5.5031733 0 0 -6.616521,-1.32844 z m -0.370524,2.45457 a 8.6387101,6.4333184 11.142391 0 1 4.730135,0.93123 8.6387101,6.4333184 11.142391 0 1 4.97234,5.73093 l -8.530485,-0.13507 -8.522652,-0.0751 a 8.6387101,6.4333184 11.142391 0 1 3.531778,-5.6263 8.6387101,6.4333184 11.142391 0 1 3.818884,-0.82569 z"
                inkscape:transform-center-x="0.87141286"
                inkscape:transform-center-y="-1.9233676" />
              <ellipse
                style="fill:#666666;stroke-width:0.452507"
                id="path9654"
                class="move-top"
                cx="69.346581"
                cy="153.64522"
                rx="10.053966"
                ry="10.827348" />
              <ellipse
                style="stroke-width:0.145124"
                class="vents move-top"
                id="path9708-5-5"
                cx="73.213493"
                cy="158.28551"
                rx="2.0623517"
                ry="2.1813347" />
              <ellipse
                style="stroke-width:0.145124"
                class="vents move-top"
                id="path9708-5-6"
                cx="64.964096"
                cy="158.28552"
                rx="2.0623517"
                ry="2.1813347" />
              <ellipse
                style="stroke-width:0.145124"
                class="vents move-top"
                id="svgInternalID"
                cx="65.221886"
                cy="150.17493"
                rx="2.0623517"
                ry="2.1813347" />
              <rect
                style="fill:#333333;stroke-width:0.16183"
                id="rect11323"
                class="move-top"
                width="4.5110507"
                height="3.0863779"
                x="123.70477"
                y="91.418777"
                transform="matrix(0.86384701,0.50375425,-0.3912386,0.92028928,0,0)" />
                
            </svg>