<svg
            class="top-grill"
            width="80mm"
            height="50mm"
            viewBox="37.5 100 120 70"
            version="1.1"
            id="svg5"
            inkscape:version="1.2.1 (9c6d41e, 2022-07-14)"
            sodipodi:docname="drawing.svg"
            xmlns:inkscape="http://www.inkscape.org/namespaces/inkscape"
            xmlns:sodipodi="http://sodipodi.sourceforge.net/DTD/sodipodi-0.dtd"
            xmlns="http://www.w3.org/2000/svg"
            xmlns:svg="http://www.w3.org/2000/svg">>
              <path
                style="fill:#000000;stroke-width:0.66997"
                id="top"
                class="move-top"
                sodipodi:type="arc"
                sodipodi:cx="-99.041115"
                sodipodi:cy="-172.47568"
                sodipodi:rx="53.76112"
                sodipodi:ry="57.083675"
                sodipodi:start="6.2739704"
                sodipodi:end="3.1415927"
                sodipodi:arc-type="slice"
                d="m -45.282277,-173.00169 a 53.76112,57.083675 0 0 1 -26.592766,49.78565 53.76112,57.083675 0 0 1 -53.903497,0.26371 53.76112,57.083675 0 0 1 -27.02369,-49.52335 h 53.761115 z"
                transform="matrix(-0.99995684,-0.0092908,0.01133687,-0.99993574,0,0)" />
              <path
                style="fill:#000000;stroke-width:0.149398"
                id="handle"
                class="move-top"
                sodipodi:type="arc"
                sodipodi:cx="-98.296051"
                sodipodi:cy="-117.5982"
                sodipodi:rx="11.992127"
                sodipodi:ry="12.725142"
                sodipodi:start="6.2739704"
                sodipodi:end="3.1415927"
                sodipodi:arc-type="slice"
                d="m -86.304433,-117.71546 a 11.992127,12.725142 0 0 1 -5.931867,11.09826 11.992127,12.725142 0 0 1 -12.02389,0.0588 11.992127,12.725142 0 0 1 -6.02799,-11.03979 h 11.992129 z"
                transform="matrix(-0.99996145,-0.0087802,0.00582372,-0.99998304,0,0)" />
              <path
                style="fill:#ffffff;stroke-width:0.0975343"
                id="handle-fill"
                class="move-top"
                sodipodi:type="arc"
                sodipodi:cx="-93.949425"
                sodipodi:cy="-114.26635"
                sodipodi:rx="7.8598256"
                sodipodi:ry="8.2750549"
                sodipodi:start="6.2739704"
                sodipodi:end="3.1415927"
                sodipodi:arc-type="slice"
                d="m -86.089933,-114.3426 a 7.8598256,8.2750549 0 0 1 -3.887837,7.21711 7.8598256,8.2750549 0 0 1 -7.880641,0.0382 7.8598256,8.2750549 0 0 1 -3.950839,-7.17908 h 7.859825 z"
                transform="matrix(-0.99952038,-0.03096784,-0.03362944,-0.99943437,0,0)" />
              <ellipse
                style="fill:#666666;stroke-width:0.452507"
                id="path9654"
                class="move-top"
                cx="69.346581"
                cy="153.64522"
                rx="10.053966"
                ry="10.827348" />
              <ellipse
                style="stroke-width:0.145124"
                class="vents move-top"
                id="path9708-5-5"
                cx="73.213493"
                cy="158.28551"
                rx="2.0623517"
                ry="2.1813347" />
              <ellipse
                style="stroke-width:0.145124"
                class="vents move-top"
                id="path9708-5-6"
                cx="64.964096"
                cy="158.28552"
                rx="2.0623517"
                ry="2.1813347" />
              <ellipse
                style="stroke-width:0.145124"
                class="vents move-top"
                id="svgInternalID"
                cx="65.221886"
                cy="150.17493"
                rx="2.0623517"
                ry="2.1813347" />
              <rect
                style="fill:#333333;stroke-width:0.16183"
                id="rect11323"
                class="move-top"
                width="4.5110507"
                height="3.0863779"
                x="123.70477"
                y="91.418777"
                transform="matrix(0.86384701,0.50375425,-0.3912386,0.92028928,0,0)" />
            </svg>